<svg width="461" height="259" viewBox="0 0 461 259" fill="none" xmlns="http://www.w3.org/2000/svg">
<path d="M83.9538 1.65263H0V117.337H83.9538C113.866 117.337 140.143 98.8275 140.143 59.4948C140.143 20.1621 113.866 1.65263 83.9538 1.65263ZM72.7159 92.3822H29.7474V26.6074H72.7159C95.1917 26.6074 110.396 31.4 110.396 59.4948C110.396 87.5896 95.1917 92.3822 72.7159 92.3822Z" fill="#E7FC63"/>
<path d="M231.879 118.99C282.615 118.99 304.595 97.6707 304.595 59.3296C304.595 21.1537 282.615 0 231.879 0C180.978 0 159.163 20.9885 159.163 59.3296C159.163 97.8359 180.978 118.99 231.879 118.99ZM231.879 94.0349C200.974 94.0349 188.91 83.1275 188.91 59.3296C188.91 35.6969 200.809 24.9548 231.879 24.9548C262.948 24.9548 274.847 35.8622 274.847 59.3296C274.847 82.9622 262.783 94.0349 231.879 94.0349Z" fill="#E7FC63"/>
<path d="M127.088 194.547C132.872 188.102 136.177 180.169 136.177 172.071C136.177 155.049 128.079 141.663 101.802 141.663H0V257.347H105.769C132.045 257.347 143.449 243.135 143.449 223.634C143.449 210.247 137.003 200.662 127.088 194.547ZM29.7474 163.147H91.0601C99.158 163.147 106.43 163.147 106.43 175.046C106.43 187.11 99.158 187.11 91.2254 187.11H91.0601H29.7474V163.147ZM98.497 234.376H29.7474V209.917H98.497C106.43 209.917 113.701 209.917 113.701 222.146C113.701 234.376 106.43 234.376 98.497 234.376Z" fill="#E7FC63"/>
<path d="M298.422 184.136C298.422 158.355 280.408 141.663 254.131 141.663H163.236V257.347H192.984V226.443H240.91L259.585 257.347H294.621L273.302 222.973C288.836 216.858 298.422 202.976 298.422 184.136ZM192.984 166.618H245.868C254.792 166.618 268.674 166.618 268.674 184.136C268.674 201.488 254.792 201.488 245.868 201.488H192.984V166.618Z" fill="#E7FC63"/>
<path d="M388.04 259C438.776 259 460.756 237.681 460.756 199.34C460.756 161.164 438.776 140.01 388.04 140.01C337.139 140.01 315.324 160.999 315.324 199.34C315.324 237.846 337.139 259 388.04 259ZM388.04 234.045C357.136 234.045 345.071 223.138 345.071 199.34C345.071 175.707 356.97 164.965 388.04 164.965C419.109 164.965 431.008 175.873 431.008 199.34C431.008 222.973 418.944 234.045 388.04 234.045Z" fill="#E7FC63"/>
<path d="M413.861 42.3881L389.293 9.84733C388.814 9.21642 387.855 9.21642 387.376 9.84733L362.808 42.3881C354.06 54.4962 354.06 71.2711 362.808 83.3793C368.92 91.8295 378.268 96.6226 388.335 96.6226C398.401 96.6226 407.749 91.8295 413.861 83.3793C422.609 71.2711 422.609 54.3701 413.861 42.3881Z" fill="#E7FC63"/>
</svg>
